<svg width="324" height="164" viewBox="0 0 324 164" fill="none" xmlns="http://www.w3.org/2000/svg">
<path d="M121.501 145.987C121.501 146.766 121.349 147.454 121.043 148.051C120.738 148.648 120.3 149.109 119.731 149.432C119.166 149.756 118.523 149.918 117.803 149.918C117.078 149.918 116.431 149.758 115.862 149.439C115.296 149.12 114.859 148.667 114.549 148.079C114.239 147.486 114.082 146.805 114.077 146.035V145.679C114.077 144.895 114.23 144.205 114.535 143.608C114.841 143.011 115.276 142.551 115.841 142.227C116.406 141.899 117.056 141.735 117.789 141.735C118.509 141.735 119.15 141.895 119.71 142.214C120.275 142.533 120.713 142.991 121.023 143.588C121.337 144.18 121.497 144.864 121.501 145.638V145.987ZM119.519 145.673C119.519 144.916 119.366 144.335 119.061 143.929C118.76 143.524 118.336 143.321 117.789 143.321C117.224 143.321 116.793 143.524 116.497 143.929C116.206 144.335 116.06 144.916 116.06 145.673V145.987C116.06 146.73 116.21 147.309 116.511 147.723C116.812 148.138 117.242 148.345 117.803 148.345C118.332 148.345 118.749 148.14 119.054 147.73C119.364 147.32 119.519 146.732 119.519 145.966V145.673ZM126.012 147.19V149.808H124.029V141.844H127.427C128.074 141.844 128.648 141.961 129.149 142.193C129.651 142.421 130.036 142.747 130.304 143.171C130.578 143.594 130.715 144.073 130.715 144.606C130.715 145.395 130.416 146.023 129.819 146.493C129.222 146.958 128.413 147.19 127.392 147.19H126.012ZM126.012 145.597H127.427C127.846 145.597 128.169 145.511 128.397 145.338C128.63 145.164 128.746 144.925 128.746 144.62C128.746 144.269 128.63 143.986 128.397 143.772C128.169 143.558 127.853 143.449 127.447 143.444H126.012V145.597ZM138.52 146.493H135.232V148.222H139.101V149.808H133.249V141.844H139.108V143.444H135.232V144.9H138.52V146.493ZM144.623 147.06H143.386V149.808H141.403V141.844H144.726C145.737 141.844 146.526 142.054 147.091 142.473C147.656 142.888 147.938 143.476 147.938 144.237C147.938 144.802 147.82 145.269 147.583 145.638C147.351 146.003 146.97 146.301 146.441 146.534L148.246 149.726V149.808H146.113L144.623 147.06ZM143.386 145.467H144.726C145.55 145.467 145.963 145.128 145.963 144.449C145.963 143.779 145.532 143.444 144.671 143.444H143.386V145.467ZM155.552 148.291H152.469L151.909 149.808H149.926L153.078 141.844H154.937L158.116 149.808H156.12L155.552 148.291ZM153.003 146.841H155.005L154.001 144.148L153.003 146.841ZM166.967 147.081C166.912 147.951 166.568 148.642 165.935 149.152C165.306 149.662 164.476 149.918 163.446 149.918C162.339 149.918 161.466 149.58 160.828 148.906C160.195 148.227 159.869 147.293 159.851 146.103V145.652C159.851 144.463 160.172 143.512 160.815 142.801C161.462 142.09 162.335 141.735 163.433 141.735C164.463 141.735 165.288 141.992 165.907 142.507C166.527 143.022 166.883 143.733 166.974 144.64H164.998C164.953 143.765 164.431 143.328 163.433 143.328C162.394 143.328 161.858 144.055 161.826 145.508V146.014C161.826 146.83 161.952 147.42 162.202 147.785C162.458 148.149 162.872 148.332 163.446 148.332C163.943 148.332 164.317 148.231 164.568 148.031C164.823 147.83 164.962 147.514 164.985 147.081H166.967ZM171.505 149.808H169.522V141.844H171.505V149.808ZM181.586 145.987C181.586 146.766 181.434 147.454 181.128 148.051C180.823 148.648 180.385 149.109 179.816 149.432C179.251 149.756 178.608 149.918 177.888 149.918C177.163 149.918 176.516 149.758 175.947 149.439C175.382 149.12 174.944 148.667 174.634 148.079C174.324 147.486 174.167 146.805 174.163 146.035V145.679C174.163 144.895 174.315 144.205 174.621 143.608C174.926 143.011 175.361 142.551 175.926 142.227C176.491 141.899 177.141 141.735 177.874 141.735C178.594 141.735 179.235 141.895 179.795 142.214C180.36 142.533 180.798 142.991 181.108 143.588C181.422 144.18 181.582 144.864 181.586 145.638V145.987ZM179.604 145.673C179.604 144.916 179.451 144.335 179.146 143.929C178.845 143.524 178.421 143.321 177.874 143.321C177.309 143.321 176.879 143.524 176.582 143.929C176.291 144.335 176.145 144.916 176.145 145.673V145.987C176.145 146.73 176.295 147.309 176.596 147.723C176.897 148.138 177.328 148.345 177.888 148.345C178.417 148.345 178.834 148.14 179.139 147.73C179.449 147.32 179.604 146.732 179.604 145.966V145.673ZM191.217 149.808H189.241L186.097 144.845V149.808H184.114V141.844H186.097L189.241 146.814V141.844H191.217V149.808ZM199.248 146.493H195.96V148.222H199.829V149.808H193.977V141.844H199.836V143.444H195.96V144.9H199.248V146.493ZM206.561 147.669C206.561 147.404 206.449 147.192 206.226 147.033C206.002 146.873 205.622 146.73 205.084 146.602C204.546 146.475 204.093 146.34 203.724 146.199C203.359 146.053 203.058 145.882 202.821 145.686C202.585 145.49 202.409 145.265 202.295 145.009C202.181 144.75 202.124 144.442 202.124 144.087C202.124 143.403 202.409 142.84 202.979 142.398C203.548 141.956 204.282 141.735 205.18 141.735C206.16 141.735 206.95 141.958 207.552 142.405C208.158 142.847 208.461 143.453 208.461 144.223H206.486C206.486 143.932 206.367 143.688 206.13 143.492C205.898 143.296 205.583 143.198 205.187 143.198C204.836 143.198 204.551 143.275 204.332 143.43C204.113 143.585 204.004 143.779 204.004 144.011C204.004 144.244 204.118 144.433 204.346 144.579C204.574 144.72 204.952 144.857 205.481 144.989C206.543 145.221 207.301 145.543 207.757 145.953C208.217 146.363 208.447 146.917 208.447 147.614C208.447 148.325 208.167 148.888 207.607 149.302C207.046 149.713 206.28 149.918 205.31 149.918C204.649 149.918 204.052 149.811 203.519 149.596C202.986 149.382 202.573 149.077 202.281 148.68C201.994 148.284 201.851 147.814 201.851 147.272H203.833C203.833 147.696 203.963 148.001 204.223 148.188C204.487 148.375 204.881 148.468 205.405 148.468C205.761 148.468 206.041 148.395 206.246 148.25C206.456 148.104 206.561 147.91 206.561 147.669Z" fill="#D62826"/>
<path d="M234.994 0V36.6375H248.36V0H234.994ZM300.273 7.0532L264.168 41.2612L273.644 50.2541L309.749 16.0264L300.273 7.0532ZM43.8329 33.5027C43.5639 33.5027 43.2949 33.5027 43.026 33.5027C32.2461 33.3656 23.3285 36.9118 15.8592 44.2784C8.22432 51.508 4.5 60.0894 4.5 70.3165C4.5 80.4065 8.22432 89.2818 15.8592 96.4917C23.3285 103.584 32.2668 107.13 43.026 107.13C51.654 107.13 59.5785 104.662 66.4685 99.6265C73.2343 94.4541 77.6828 88.0475 79.9794 80.1322H64.3166C62.3096 83.9527 59.4336 87.0874 55.8335 89.5365C51.7988 91.8679 47.64 93.0827 43.026 93.0827C36.4257 93.0827 30.8185 90.7708 26.2045 86.3821C21.4663 81.8955 19.1697 76.586 19.3145 70.2969C19.1697 64.0274 21.487 58.6983 26.2045 54.2117C30.8185 49.8426 36.4257 47.5307 43.026 47.5307C47.64 47.5307 51.7988 48.7455 55.8335 51.2141C59.4336 53.526 62.3096 56.7979 64.3166 60.6183H79.9794C77.6828 52.7227 73.2136 46.1593 66.4685 41.1241C59.7854 36.1281 52.1505 33.5419 43.8329 33.5027ZM87.5936 33.5223V107.424H102.553V33.5223H87.5936ZM139.134 47.9618C138.741 47.9618 138.327 47.9618 137.934 47.9814C127.858 47.8442 120.823 50.4304 116.788 55.4852C114.202 58.6199 112.919 62.7147 112.464 67.9067H127.423C127.713 65.4576 128.582 63.8119 129.575 62.7343C131.147 60.8143 133.734 59.8543 137.479 59.9914C140.644 59.8543 143.086 60.4028 144.803 61.3629C146.521 62.1857 147.245 63.8315 147.39 66.1434C147.39 68.0438 146.231 69.5524 143.934 70.5124L132.43 72.2757C127.113 72.9614 122.809 74.1762 119.499 75.9591C113.891 79.0938 111.16 84.129 111.305 91.3781C111.16 96.4133 112.878 100.508 116.333 103.506C119.354 105.974 123.513 107.326 128.561 107.463C136.755 107.326 143.21 105.406 147.824 101.586V107.463H162.783V65.7319C162.783 58.9138 160.176 54.1529 155.293 51.6843C150.472 49.2157 145.114 47.9814 139.134 47.9618ZM239.877 48.0989C231.394 48.0989 224.048 50.979 218.027 56.837C211.841 62.6951 208.82 69.7875 208.82 77.9771C208.82 86.1666 211.841 93.2394 218.027 98.9799C224.069 104.858 231.394 107.836 239.877 107.836C248.36 107.836 255.829 104.838 262.016 98.9799C268.057 93.259 271.078 86.1666 271.078 77.9771C271.078 69.7875 268.057 62.7147 262.016 56.837C255.829 50.979 248.36 48.0989 239.877 48.0989ZM207.392 48.2361L203.503 48.5104L197.73 50.019C193.716 51.5276 190.116 54.1137 187.095 58.0518V50.8222L172.86 50.6851V107.405H187.674V80.2889C187.674 75.6456 188.254 72.3737 189.557 70.3361C190.55 68.1614 192.412 66.3785 194.73 64.8895C197.316 63.2437 200.047 62.4208 202.923 62.4208L207.517 62.6951L207.392 48.2361ZM239.049 62.2837C239.318 62.2837 239.608 62.2837 239.877 62.2837C244.491 62.1465 248.36 63.6551 251.65 66.7899C254.671 69.7875 256.264 73.4708 256.409 77.9771C256.264 82.209 254.671 85.8923 251.505 89.0271C248.339 92.1814 244.47 93.6508 239.856 93.6508C235.408 93.6508 231.518 92.1618 228.352 89.0271C225.186 85.8923 223.448 82.209 223.448 77.9771C223.448 73.4904 225.166 69.7875 228.352 66.7899C231.331 63.8511 234.932 62.3425 239.049 62.2837ZM280.286 64.4584V77.1346H319.825V64.4584H280.286ZM147.121 78.5256V84.2466C147.121 89.1446 145.672 92.5537 142.962 94.4737C140.086 96.3742 137.065 97.3342 133.61 97.3342C131.458 97.3342 129.72 96.7856 128.292 95.708C126.864 94.4737 126.14 92.7104 126.14 90.1242C126.14 87.2638 127.299 85.2066 129.74 83.7176C131.189 82.8947 133.63 82.2286 136.796 81.8171L144.265 80.0342L147.121 78.5256Z" fill="#D62826"/>
</svg>
